<svg width="1920" height="1024" viewBox="0 0 1920 1024" fill="none" xmlns="http://www.w3.org/2000/svg">
<g clip-path="url(#clip0_206_3652)">
<path fill-rule="evenodd" clip-rule="evenodd" d="M1764.46 241.797L1995.75 9.52731V-38.9409L1997.19 117.315L1656.07 460.209C1655.73 447.109 1655.39 422.562 1655.07 399.712L1655.07 399.707V399.707C1654.78 379.707 1654.52 361.008 1654.3 352.422L1670.7 335.948L1654.12 352.365C1653.49 327.796 1652.82 302.038 1652.34 283.642L1763.03 174.407V125.939L1764.46 241.797ZM1977.66 426.209H2033.36L2066.64 458.039L1912.23 615.85C1919.86 617.435 1997.07 616.45 2035.53 615.742L2082.55 659.87L1937.15 813.232H1905.32L1664.43 1062.81V962.977L1700.6 924.636V824.958L1636.21 888.466V820.466L1704.21 751.742V722.806L1977.66 426.209ZM1712.29 611.281L1597.87 725.699V623.699L2000.81 220.038V298.152L2085.45 206.294V309.018L1686.85 740.891V638.891L1712.29 611.281Z" fill="url(#paint0_linear_206_3652)"/>
<path d="M1995.75 9.52731L1996.45 10.2329L1996.75 9.94028V9.52731H1995.75ZM1764.46 241.797L1763.46 241.809L1763.49 244.189L1765.16 242.502L1764.46 241.797ZM1995.75 -38.9409L1996.75 -38.9502L1994.75 -38.9409H1995.75ZM1997.19 117.315L1997.9 118.02L1998.2 117.724L1998.19 117.306L1997.19 117.315ZM1656.07 460.209L1655.07 460.235L1655.13 462.572L1656.78 460.915L1656.07 460.209ZM1655.07 399.712L1656.07 399.698L1656.07 399.696L1655.07 399.712ZM1655.07 399.707H1654.07V399.715L1654.07 399.724L1655.07 399.707ZM1655.07 399.707H1656.07L1656.07 399.693L1655.07 399.707ZM1654.3 352.422L1653.59 351.716L1653.29 352.02L1653.3 352.448L1654.3 352.422ZM1670.7 335.948L1671.41 336.654L1670 335.238L1670.7 335.948ZM1654.12 352.365L1653.12 352.391L1653.18 354.703L1654.82 353.076L1654.12 352.365ZM1652.34 283.642L1651.64 282.93L1651.33 283.234L1651.35 283.668L1652.34 283.642ZM1763.03 174.407L1763.73 175.119L1764.03 174.825V174.407H1763.03ZM1763.03 125.939L1764.03 125.927L1762.03 125.939H1763.03ZM2033.36 426.209L2034.06 425.487L2033.77 425.209H2033.36V426.209ZM1977.66 426.209V425.209H1977.22L1976.93 425.531L1977.66 426.209ZM2066.64 458.039L2067.36 458.738L2068.06 458.015L2067.33 457.316L2066.64 458.039ZM1912.23 615.85L1911.52 615.15L1910.24 616.457L1912.03 616.829L1912.23 615.85ZM2035.53 615.742L2036.22 615.013L2035.92 614.735L2035.51 614.742L2035.53 615.742ZM2082.55 659.87L2083.28 660.558L2083.97 659.828L2083.24 659.14L2082.55 659.87ZM1937.15 813.232V814.232H1937.58L1937.88 813.92L1937.15 813.232ZM1905.32 813.232V812.232H1904.9L1904.6 812.537L1905.32 813.232ZM1664.43 1062.81H1663.43V1065.28L1665.15 1063.5L1664.43 1062.81ZM1664.43 962.977L1663.7 962.291L1663.43 962.58V962.977H1664.43ZM1700.6 924.636L1701.32 925.323L1701.6 925.034V924.636H1700.6ZM1700.6 824.958H1701.6V822.567L1699.89 824.246L1700.6 824.958ZM1636.21 888.466H1635.21V890.857L1636.92 889.178L1636.21 888.466ZM1636.21 820.466L1635.5 819.762L1635.21 820.054V820.466H1636.21ZM1704.21 751.742L1704.92 752.445L1705.21 752.153V751.742H1704.21ZM1704.21 722.806L1703.48 722.128L1703.21 722.415V722.806H1704.21ZM1712.29 611.281L1713.03 611.958L1711.58 610.574L1712.29 611.281ZM1597.87 725.699H1596.87V728.114L1598.58 726.407L1597.87 725.699ZM1597.87 623.699L1597.17 622.993L1596.87 623.285V623.699H1597.87ZM2000.81 220.038H2001.81V217.621L2000.1 219.332L2000.81 220.038ZM2000.81 298.152H1999.81V300.713L2001.55 298.829L2000.81 298.152ZM2085.45 206.294H2086.45V203.733L2084.71 205.616L2085.45 206.294ZM2085.45 309.018L2086.18 309.696L2086.45 309.409V309.018H2085.45ZM1686.85 740.891H1685.85V743.449L1687.59 741.57L1686.85 740.891ZM1686.85 638.891L1686.12 638.213L1685.85 638.501V638.891H1686.85ZM1657.84 494.483L1656.89 494.793L1656.89 494.794L1657.84 494.483ZM2000.81 153.485L2000.1 152.778L1999.81 153.071V153.485H2000.81ZM1597.87 798.04L1598.57 798.754L1598.87 798.46V798.04H1597.87ZM1995.04 8.8217L1763.75 241.091L1765.16 242.502L1996.45 10.2329L1995.04 8.8217ZM1994.75 -38.9409V9.52731H1996.75V-38.9409H1994.75ZM1998.19 117.306L1996.75 -38.9502L1994.75 -38.9317L1996.19 117.324L1998.19 117.306ZM1656.78 460.915L1997.9 118.02L1996.48 116.61L1655.36 459.504L1656.78 460.915ZM1654.07 399.727C1654.39 422.573 1654.73 447.127 1655.07 460.235L1657.07 460.184C1656.73 447.09 1656.39 422.551 1656.07 399.698L1654.07 399.727ZM1654.07 399.724L1654.07 399.729L1656.07 399.696L1656.07 399.69L1654.07 399.724ZM1654.07 399.707V399.707H1656.07V399.707H1654.07ZM1653.3 352.448C1653.52 361.026 1653.78 379.717 1654.07 399.721L1656.07 399.693C1655.78 379.697 1655.52 360.99 1655.3 352.396L1653.3 352.448ZM1669.99 335.243L1653.59 351.716L1655.01 353.128L1671.41 336.654L1669.99 335.243ZM1654.82 353.076L1671.41 336.659L1670 335.238L1653.41 351.655L1654.82 353.076ZM1651.35 283.668C1651.82 302.064 1652.49 327.822 1653.12 352.391L1655.12 352.34C1654.49 327.771 1653.82 302.012 1653.34 283.616L1651.35 283.668ZM1762.32 173.696L1651.64 282.93L1653.05 284.353L1763.73 175.119L1762.32 173.696ZM1762.03 125.939V174.407H1764.03V125.939H1762.03ZM1765.46 241.784L1764.03 125.927L1762.03 125.951L1763.46 241.809L1765.46 241.784ZM2033.36 425.209H1977.66V427.209H2033.36V425.209ZM2067.33 457.316L2034.06 425.487L2032.67 426.932L2065.95 458.762L2067.33 457.316ZM1912.95 616.549L2067.36 458.738L2065.93 457.34L1911.52 615.15L1912.95 616.549ZM2035.51 614.742C2016.29 615.096 1987.37 615.519 1962.31 615.656C1949.79 615.724 1938.22 615.721 1929.32 615.601C1924.87 615.541 1921.09 615.453 1918.18 615.33C1915.25 615.206 1913.29 615.049 1912.43 614.871L1912.03 616.829C1913.08 617.047 1915.2 617.206 1918.1 617.328C1921.03 617.452 1924.83 617.541 1929.29 617.601C1938.22 617.721 1949.79 617.724 1962.33 617.656C1987.4 617.519 2016.32 617.096 2035.55 616.742L2035.51 614.742ZM2083.24 659.14L2036.22 615.013L2034.85 616.471L2081.87 660.599L2083.24 659.14ZM1937.88 813.92L2083.28 660.558L2081.83 659.182L1936.42 812.544L1937.88 813.92ZM1905.32 814.232H1937.15V812.232H1905.32V814.232ZM1665.15 1063.5L1906.04 813.926L1904.6 812.537L1663.71 1062.11L1665.15 1063.5ZM1663.43 962.977V1062.81H1665.43V962.977H1663.43ZM1699.87 923.95L1663.7 962.291L1665.15 963.663L1701.32 925.323L1699.87 923.95ZM1699.6 824.958V924.636H1701.6V824.958H1699.6ZM1636.92 889.178L1701.3 825.67L1699.89 824.246L1635.51 887.754L1636.92 889.178ZM1635.21 820.466V888.466H1637.21V820.466H1635.21ZM1703.5 751.039L1635.5 819.762L1636.92 821.169L1704.92 752.445L1703.5 751.039ZM1703.21 722.806V751.742H1705.21V722.806H1703.21ZM1976.93 425.531L1703.48 722.128L1704.95 723.484L1978.4 426.887L1976.93 425.531ZM1711.58 610.574L1597.17 724.992L1598.58 726.407L1713 611.988L1711.58 610.574ZM1598.87 725.699V623.699H1596.87V725.699H1598.87ZM1598.58 624.406L2001.52 220.745L2000.1 219.332L1597.17 622.993L1598.58 624.406ZM1999.81 220.038V298.152H2001.81V220.038H1999.81ZM2084.71 205.616L2000.07 297.474L2001.55 298.829L2086.18 206.972L2084.71 205.616ZM2086.45 309.018V206.294H2084.45V309.018H2086.45ZM1687.59 741.57L2086.18 309.696L2084.71 308.339L1686.12 740.213L1687.59 741.57ZM1685.85 638.891V740.891H1687.85V638.891H1685.85ZM1711.56 610.603L1686.12 638.213L1687.59 639.569L1713.03 611.958L1711.56 610.603ZM1635.21 888.466V924.636H1637.21V888.466H1635.21ZM1655.73 376.308C1655.53 368.667 1655.33 360.57 1655.12 352.34L1653.12 352.391C1653.33 360.621 1653.53 368.718 1653.73 376.359L1655.73 376.308ZM1658.91 494.933C1658.91 494.782 1658.91 494.64 1658.88 494.495C1658.85 494.351 1658.82 494.235 1658.8 494.173L1656.89 494.794C1656.92 494.871 1656.91 494.862 1656.91 494.851C1656.91 494.836 1656.91 494.849 1656.91 494.933H1658.91ZM1658.8 494.173C1658.72 493.954 1658.49 493.321 1658.17 488.752C1657.86 484.204 1657.47 475.827 1657.07 460.184L1655.07 460.235C1655.47 475.886 1655.86 484.298 1656.18 488.89C1656.49 493.46 1656.74 494.316 1656.89 494.793L1658.8 494.173ZM2036.27 116.608L2000.1 152.778L2001.52 154.192L2037.69 118.022L2036.27 116.608ZM1999.81 153.485V220.038H2001.81V153.485H1999.81ZM1596.87 725.699V798.04H1598.87V725.699H1596.87ZM1597.17 797.327L1437.3 954.306L1438.7 955.733L1598.57 798.754L1597.17 797.327ZM2084.45 139.741V206.294H2086.45V139.741H2084.45Z" fill="#812F96"/>
<path fill-rule="evenodd" clip-rule="evenodd" d="M34.3208 266.864L254.181 46.0727V0L255.556 148.533L-68.7075 474.48C-69.0268 462.026 -69.3556 438.692 -69.6616 416.97L-69.6617 416.968L-69.6617 416.965V416.964C-69.9296 397.954 -70.18 380.181 -70.3915 372.02L-54.6844 356.247L-70.5658 371.966C-71.1646 348.612 -71.7967 324.126 -72.2497 306.639L32.9612 202.804V156.731L34.3208 266.864ZM236.989 442.16H289.939L321.571 472.417L174.792 622.428C182.046 623.935 255.439 622.999 292.001 622.326L336.698 664.273L198.48 810.055H168.223L-60.7652 1047.3V952.399L-26.3825 915.953V821.202L-87.5829 881.571V816.931L-22.9435 751.604V724.098L236.989 442.16ZM-15.2601 618.08L-124.029 726.849V629.89L258.994 246.18V320.432L339.449 233.114V330.761L-39.4475 741.29V644.331L-15.2601 618.08Z" fill="url(#paint1_linear_206_3652)"/>
<path d="M254.181 46.0727L254.889 46.7783L255.181 46.4857V46.0727H254.181ZM34.3208 266.864L33.3209 266.876L33.3503 269.256L35.0294 267.57L34.3208 266.864ZM254.181 0L255.181 -0.00925886L253.181 0H254.181ZM255.556 148.533L256.265 149.238L256.56 148.942L256.556 148.524L255.556 148.533ZM-68.7075 474.48L-69.7072 474.506L-69.6472 476.843L-67.9986 475.186L-68.7075 474.48ZM-69.6616 416.97L-68.6617 416.956L-68.6619 416.948L-69.6616 416.97ZM-69.6617 416.968L-70.6616 416.982L-70.6614 416.991L-69.6617 416.968ZM-69.6617 416.965L-70.6618 416.965L-70.6616 416.978L-69.6617 416.965ZM-69.6617 416.964H-68.6616L-68.6618 416.95L-69.6617 416.964ZM-70.3915 372.02L-71.1001 371.315L-71.4022 371.618L-71.3911 372.046L-70.3915 372.02ZM-54.6844 356.247L-53.9758 356.952L-55.3879 355.536L-54.6844 356.247ZM-70.5658 371.966L-71.5654 371.992L-71.5061 374.304L-69.8623 372.677L-70.5658 371.966ZM-72.2497 306.639L-72.9522 305.928L-73.2606 306.232L-73.2494 306.665L-72.2497 306.639ZM32.9612 202.804L33.6636 203.516L33.9612 203.222V202.804H32.9612ZM32.9612 156.731L33.9611 156.719L31.9612 156.731H32.9612ZM289.939 442.16L290.63 441.438L290.34 441.16H289.939V442.16ZM236.989 442.16V441.16H236.551L236.254 441.483L236.989 442.16ZM321.571 472.417L322.285 473.117L322.993 472.394L322.262 471.695L321.571 472.417ZM174.792 622.428L174.078 621.729L172.799 623.036L174.589 623.407L174.792 622.428ZM292.001 622.326L292.685 621.597L292.389 621.318L291.982 621.326L292.001 622.326ZM336.698 664.273L337.424 664.961L338.115 664.231L337.382 663.543L336.698 664.273ZM198.48 810.055V811.055H198.91L199.206 810.743L198.48 810.055ZM168.223 810.055V809.055H167.799L167.504 809.36L168.223 810.055ZM-60.7652 1047.3H-61.7652V1049.77L-60.0457 1047.99L-60.7652 1047.3ZM-60.7652 952.399L-61.4926 951.713L-61.7652 952.002V952.399H-60.7652ZM-26.3825 915.953L-25.6551 916.64L-25.3825 916.351V915.953H-26.3825ZM-26.3825 821.202H-25.3825V818.811L-27.0848 820.49L-26.3825 821.202ZM-87.5829 881.571H-88.5829V883.962L-86.8806 882.282L-87.5829 881.571ZM-87.5829 816.931L-88.2937 816.228L-88.5829 816.52V816.931H-87.5829ZM-22.9435 751.604L-22.2327 752.308L-21.9435 752.015V751.604H-22.9435ZM-22.9435 724.098L-23.6787 723.42L-23.9435 723.708V724.098H-22.9435ZM-15.2601 618.08L-14.5247 618.758L-15.9672 617.373L-15.2601 618.08ZM-124.029 726.849H-125.029V729.263L-123.322 727.556L-124.029 726.849ZM-124.029 629.89L-124.736 629.183L-125.029 629.476V629.89H-124.029ZM258.994 246.18H259.994V243.762L258.286 245.473L258.994 246.18ZM258.994 320.432H257.994V322.993L259.729 321.11L258.994 320.432ZM339.449 233.114H340.449V230.553L338.714 232.437L339.449 233.114ZM339.449 330.761L340.184 331.439L340.449 331.152V330.761H339.449ZM-39.4475 741.29H-40.4475V743.848L-38.7127 741.968L-39.4475 741.29ZM-39.4475 644.331L-40.183 643.653L-40.4475 643.94V644.331H-39.4475ZM-67.0201 507.06L-67.9707 507.37L-67.9707 507.371L-67.0201 507.06ZM258.994 182.915L258.287 182.208L257.994 182.501V182.915H258.994ZM-124.029 795.614L-123.328 796.328L-123.029 796.034V795.614H-124.029ZM253.472 45.3671L33.6122 266.159L35.0294 267.57L254.889 46.7783L253.472 45.3671ZM253.181 0V46.0727H255.181V0H253.181ZM256.556 148.524L255.181 -0.00925886L253.181 0.00925886L254.556 148.542L256.556 148.524ZM-67.9986 475.186L256.265 149.238L254.847 147.828L-69.4164 473.775L-67.9986 475.186ZM-70.6615 416.984C-70.3555 438.702 -70.0267 462.045 -69.7072 474.506L-67.7078 474.455C-68.027 462.008 -68.3556 438.681 -68.6617 416.956L-70.6615 416.984ZM-70.6614 416.991L-70.6614 416.993L-68.6619 416.948L-68.6619 416.946L-70.6614 416.991ZM-70.6616 416.978L-70.6616 416.982L-68.6618 416.955L-68.6618 416.951L-70.6616 416.978ZM-70.6617 416.964V416.965H-68.6617V416.964H-70.6617ZM-71.3911 372.046C-71.1799 380.2 -70.9296 397.964 -70.6616 416.978L-68.6618 416.95C-68.9296 397.944 -69.1802 380.163 -69.3918 371.994L-71.3911 372.046ZM-55.393 355.541L-71.1001 371.315L-69.6829 372.726L-53.9758 356.952L-55.393 355.541ZM-69.8623 372.677L-53.981 356.957L-55.3879 355.536L-71.2692 371.256L-69.8623 372.677ZM-73.2494 306.665C-72.7964 324.152 -72.1643 348.637 -71.5654 371.992L-69.5661 371.941C-70.1649 348.586 -70.797 324.101 -71.2501 306.613L-73.2494 306.665ZM32.2587 202.092L-72.9522 305.928L-71.5473 307.351L33.6636 203.516L32.2587 202.092ZM31.9612 156.731V202.804H33.9612V156.731H31.9612ZM35.3208 266.852L33.9611 156.719L31.9612 156.743L33.3209 266.876L35.3208 266.852ZM289.939 441.16H236.989V443.16H289.939V441.16ZM322.262 471.695L290.63 441.438L289.247 442.883L320.879 473.14L322.262 471.695ZM175.507 623.128L322.285 473.117L320.856 471.718L174.078 621.729L175.507 623.128ZM291.982 621.326C273.704 621.662 246.22 622.065 222.401 622.194C210.49 622.259 199.501 622.256 191.038 622.143C186.806 622.086 183.212 622.002 180.454 621.885C177.662 621.767 175.808 621.618 174.996 621.449L174.589 623.407C175.591 623.615 177.617 623.767 180.369 623.883C183.156 624.001 186.772 624.086 191.011 624.142C199.493 624.256 210.497 624.259 222.412 624.194C246.242 624.064 273.736 623.662 292.019 623.326L291.982 621.326ZM337.382 663.543L292.685 621.597L291.316 623.055L336.014 665.002L337.382 663.543ZM199.206 810.743L337.424 664.961L335.972 663.585L197.754 809.367L199.206 810.743ZM168.223 811.055H198.48V809.055H168.223V811.055ZM-60.0457 1047.99L168.943 810.749L167.504 809.36L-61.4847 1046.6L-60.0457 1047.99ZM-61.7652 952.399V1047.3H-59.7652V952.399H-61.7652ZM-27.1099 915.267L-61.4926 951.713L-60.0378 953.085L-25.6551 916.64L-27.1099 915.267ZM-27.3825 821.202V915.953H-25.3825V821.202H-27.3825ZM-86.8806 882.282L-25.6803 821.914L-27.0848 820.49L-88.2851 880.859L-86.8806 882.282ZM-88.5829 816.931V881.571H-86.5829V816.931H-88.5829ZM-23.6543 750.901L-88.2937 816.228L-86.872 817.635L-22.2327 752.308L-23.6543 750.901ZM-23.9435 724.098V751.604H-21.9435V724.098H-23.9435ZM236.254 441.483L-23.6787 723.42L-22.2083 724.776L237.724 442.838L236.254 441.483ZM-15.9672 617.373L-124.736 726.142L-123.322 727.556L-14.553 618.787L-15.9672 617.373ZM-123.029 726.849V629.89H-125.029V726.849H-123.029ZM-123.321 630.596L259.702 246.886L258.286 245.473L-124.736 629.183L-123.321 630.596ZM257.994 246.18V320.432H259.994V246.18H257.994ZM338.714 232.437L258.258 319.755L259.729 321.11L340.185 233.792L338.714 232.437ZM340.449 330.761V233.114H338.449V330.761H340.449ZM-38.7127 741.968L340.184 331.439L338.714 330.083L-40.1824 740.612L-38.7127 741.968ZM-40.4475 644.331V741.29H-38.4475V644.331H-40.4475ZM-15.9955 617.403L-40.183 643.653L-38.7121 645.008L-14.5247 618.758L-15.9955 617.403ZM-88.5829 881.571V915.953H-86.5829V881.571H-88.5829ZM-68.9793 394.89C-69.1656 387.577 -69.364 379.823 -69.5661 371.941L-71.5654 371.992C-71.3633 379.875 -71.165 387.628 -70.9786 394.941L-68.9793 394.89ZM-65.9532 507.488C-65.9532 507.343 -65.9606 507.205 -65.9863 507.062C-66.0116 506.922 -66.0503 506.809 -66.0695 506.75L-67.9707 507.371C-67.9465 507.445 -67.9517 507.433 -67.9544 507.418C-67.9576 507.401 -67.9532 507.41 -67.9532 507.488H-65.9532ZM-66.0695 506.75C-66.1351 506.549 -66.3616 505.952 -66.6611 501.609C-66.9591 497.287 -67.3265 489.325 -67.7078 474.455L-69.7072 474.506C-69.3257 489.383 -68.9574 497.38 -68.6564 501.746C-68.3568 506.091 -68.1209 506.91 -67.9707 507.37L-66.0695 506.75ZM292.669 147.826L258.287 182.208L259.701 183.623L294.084 149.24L292.669 147.826ZM257.994 182.915V246.18H259.994V182.915H257.994ZM-125.029 726.849V795.614H-123.029V726.849H-125.029ZM-124.729 794.9L-276.701 944.121L-275.299 945.548L-123.328 796.328L-124.729 794.9ZM338.449 169.85V233.114H340.449V169.85H338.449Z" fill="#812F96"/>
</g>
<defs>
<linearGradient id="paint0_linear_206_3652" x1="1761.72" y1="-38.9409" x2="1761.72" y2="1062.81" gradientUnits="userSpaceOnUse">
<stop stop-color="#DE4EB6"/>
<stop offset="0.6875" stop-color="#DE4EB6" stop-opacity="0"/>
<stop offset="1" stop-color="#DE4EB6" stop-opacity="0"/>
</linearGradient>
<linearGradient id="paint1_linear_206_3652" x1="31.7246" y1="0" x2="31.7246" y2="1047.3" gradientUnits="userSpaceOnUse">
<stop stop-color="#DE4EB6"/>
<stop offset="0.6875" stop-color="#DE4EB6" stop-opacity="0"/>
<stop offset="1" stop-color="#DE4EB6" stop-opacity="0"/>
</linearGradient>
<clipPath id="clip0_206_3652">
<rect width="1920" height="1024" fill="white"/>
</clipPath>
</defs>
</svg>
